<svg xmlns="http://www.w3.org/2000/svg" viewBox="0 0 143 71" fill="none">
  <rect width="143" height="71" rx="16" fill="#FFFDF9"/>
  <path d="M71.5 12C80.06 12 87 18.94 87 27.5C87 39.125 71.5 56 71.5 56C71.5 56 56 39.125 56 27.5C56 18.94 62.94 12 71.5 12Z" fill="#FF5B1F"/>
  <circle cx="71.5" cy="27.5" r="7.5" fill="#FFFDF9"/>
  <path d="M28 23C23 19 18 11 20 5C27 8 31 14 33 20C34 24 32 28 28 23Z" fill="#FDB515"/>
  <path d="M35 34C29 34 20 33 16 28C22 23 31 23 37 25C41 26 41 34 35 34Z" fill="#FDB515"/>
  <path d="M39 48C33 50 24 53 18 50C23 43 31 39 37 38C42 38 45 46 39 48Z" fill="#FDB515"/>
  <path d="M115 23C120 19 125 11 123 5C116 8 112 14 110 20C109 24 111 28 115 23Z" fill="#FDB515"/>
  <path d="M108 34C114 34 123 33 127 28C121 23 112 23 106 25C102 26 102 34 108 34Z" fill="#FDB515"/>
  <path d="M104 48C110 50 119 53 125 50C120 43 112 39 106 38C101 38 98 46 104 48Z" fill="#FDB515"/>
</svg>
